<svg width="50" height="50" viewBox="0 0 50 50" fill="none" xmlns="http://www.w3.org/2000/svg">
<g clip-path="url(#clip0_1_13623)">
<path d="M22.6562 23.4375H33.5938V32.8125H22.6562V23.4375ZM7.03125 23.4375H17.9688V35.9375H7.03125V23.4375ZM17.9688 21.0938H7.03125V13.2812H17.9688V21.0938Z" fill="#F0BC5E"/>
<path d="M11.7188 3.90625H17.9688V5.46875H11.7188V3.90625ZM19.5312 3.90625H21.0938V5.46875H19.5312V3.90625ZM8.59375 3.90625H10.1562V5.46875H8.59375V3.90625ZM12.5 44.5312H17.1875V46.0938H12.5V44.5312ZM22.6562 16.4062H24.2188V17.9688H22.6562V16.4062ZM25.7812 16.4062H27.3438V17.9688H25.7812V16.4062ZM28.9062 16.4062H30.4688V17.9688H28.9062V16.4062ZM7.03125 22.6562H17.9688V24.2188H7.03125V22.6562ZM7.03125 25.7812H17.9688V27.3438H7.03125V25.7812ZM7.03125 28.9062H17.9688V30.4688H7.03125V28.9062ZM7.03125 32.0312H17.9688V33.5938H7.03125V32.0312ZM7.03125 35.1562H17.9688V36.7188H7.03125V35.1562ZM40.625 33.5938C43.6398 33.5938 46.0938 31.1398 46.0938 28.125C46.0938 25.1102 43.6398 22.6562 40.625 22.6562C37.6102 22.6562 35.1562 25.1102 35.1562 28.125V28.9062H39.8438V33.5938H40.625ZM36.7977 27.3438C36.979 26.4622 37.4586 25.67 38.1558 25.1008C38.8529 24.5316 39.725 24.2201 40.625 24.2188C42.7789 24.2188 44.5312 25.9711 44.5312 28.125C44.5301 29.0251 44.2186 29.8972 43.6494 30.5944C43.0801 31.2916 42.2879 31.7712 41.4062 31.9523V27.3438H36.7977Z" fill="black"/>
<path d="M28.9062 13.2812V4.6875C28.9062 2.53359 27.1539 0.78125 25 0.78125H4.6875C2.53359 0.78125 0.78125 2.53359 0.78125 4.6875V45.3125C0.78125 47.4664 2.53359 49.2188 4.6875 49.2188H25C27.1539 49.2188 28.9062 47.4664 28.9062 45.3125V35.1562H21.0938V21.0938H47.6562V35.1562H30.4688V36.7188H49.2188V13.2812H28.9062ZM4.6875 2.34375H25C26.2922 2.34375 27.3438 3.39531 27.3438 4.6875V7.03125H2.34375V4.6875C2.34375 3.39531 3.39531 2.34375 4.6875 2.34375ZM25 47.6562H4.6875C3.39531 47.6562 2.34375 46.6047 2.34375 45.3125V42.9688H27.3438V45.3125C27.3438 46.6047 26.2922 47.6562 25 47.6562ZM27.3438 41.4062H2.34375V8.59375H27.3438V13.2812H25.7812V10.1562H3.90625V39.8438H25.7812V36.7188H27.3438V41.4062ZM24.2188 36.7188V38.2812H5.46875V11.7188H24.2188V13.2812H19.5312V36.7188H24.2188ZM21.0938 19.5312V14.8438H47.6562V19.5312H21.0938Z" fill="black"/>
<path d="M22.6562 22.6562H33.5938V24.2188H22.6562V22.6562ZM22.6562 25.7812H33.5938V27.3438H22.6562V25.7812ZM22.6562 28.9062H33.5938V30.4688H22.6562V28.9062ZM36.7188 32.0312H38.2812V33.5938H36.7188V32.0312ZM22.6562 32.0312H35.1562V33.5938H22.6562V32.0312Z" fill="black"/>
</g>
<defs>
<clipPath id="clip0_1_13623">
<rect width="50" height="50" fill="white"/>
</clipPath>
</defs>
</svg>
