<svg width="17" height="17" viewBox="0 0 17 17" fill="none" xmlns="http://www.w3.org/2000/svg">
<path d="M16.1097 4.07781L10.3961 9.80266C10.1753 10.024 9.90385 10.1883 9.60531 10.2812L8.39125 10.6877C8.10312 10.769 7.79851 10.7721 7.5088 10.6965C7.2191 10.621 6.95477 10.4696 6.74307 10.2579C6.53136 10.0462 6.37994 9.78184 6.30439 9.49213C6.22885 9.20243 6.23192 8.89781 6.31328 8.60969L6.71969 7.39563C6.81238 7.09718 6.97632 6.82577 7.19734 6.60484L12.9222 0.890313C12.9747 0.837895 13.0104 0.771093 13.0249 0.698355C13.0394 0.625617 13.032 0.55021 13.0037 0.48167C12.9753 0.413131 12.9273 0.354537 12.8657 0.3133C12.804 0.272063 12.7315 0.250034 12.6573 0.25H2.875C2.17881 0.25 1.51113 0.526562 1.01884 1.01884C0.526562 1.51113 0.25 2.17881 0.25 2.875V14.125C0.25 14.8212 0.526562 15.4889 1.01884 15.9812C1.51113 16.4734 2.17881 16.75 2.875 16.75H14.125C14.8212 16.75 15.4889 16.4734 15.9812 15.9812C16.4734 15.4889 16.75 14.8212 16.75 14.125V4.34266C16.75 4.26849 16.7279 4.19599 16.6867 4.13434C16.6455 4.07269 16.5869 4.02465 16.5183 3.9963C16.4498 3.96795 16.3744 3.96057 16.3016 3.97507C16.2289 3.98958 16.1621 4.02534 16.1097 4.07781Z" fill="white"/>
</svg>
