<svg width="50" height="50" viewBox="0 0 50 50" fill="none" xmlns="http://www.w3.org/2000/svg">
<path d="M19.5931 9.55566H2.3268L4.28094 12.4877L0 15.0565L3.39863 17.6055L0.877528 20.1266L1.86574 20.6211C2.73338 21.0526 3.49276 21.6738 4.08759 22.4387C4.68241 23.2036 5.0974 24.0926 5.3018 25.0398L5.3671 25.3384C5.80769 24.92 6.39189 24.6863 6.99952 24.6855H7.79583V23.1558C7.79585 22.6694 7.9443 22.1947 8.22135 21.795C8.4984 21.3953 8.89084 21.0896 9.34623 20.9189L13.358 19.4147C15.5252 20.7775 18.0332 21.5004 20.5932 21.5002H25.3145V24.6855H26.1108C26.763 24.6855 27.3523 24.9482 27.7831 25.3711L28.7976 22.3268C29.1281 21.3374 29.2964 20.301 29.2961 19.2578C29.2961 13.9083 24.9435 9.55566 19.5931 9.55566Z" fill="#F0BC5E"/>
<path d="M19.3062 32.889L19.9632 30.2596H13.1468L13.8038 32.889C14.1191 34.1543 15.2507 35.0374 16.555 35.0374C17.8594 35.0374 18.9909 34.1543 19.3062 32.889ZM15.3478 32.5028L15.1854 31.8522H17.9239L17.7614 32.5028C17.6954 32.7731 17.5406 33.0134 17.3218 33.1852C17.103 33.357 16.8328 33.4504 16.5546 33.4504C16.2764 33.4504 16.0062 33.357 15.7874 33.1852C15.5686 33.0134 15.4138 32.7731 15.3478 32.5028ZM13.3698 27.0744H14.9624V26.2781C14.9624 24.961 13.8906 23.8892 12.5735 23.8892C11.2564 23.8892 10.1846 24.961 10.1846 26.2781V27.0744H11.7772V26.2781C11.7864 26.073 11.8743 25.8795 12.0226 25.7376C12.1709 25.5958 12.3682 25.5166 12.5735 25.5166C12.7787 25.5166 12.9761 25.5958 13.1244 25.7376C13.2727 25.8795 13.3606 26.073 13.3698 26.2781V27.0744ZM19.7402 26.2781C19.7494 26.073 19.8373 25.8795 19.9856 25.7376C20.134 25.5958 20.3313 25.5166 20.5365 25.5166C20.7418 25.5166 20.9391 25.5958 21.0874 25.7376C21.2358 25.8795 21.3237 26.073 21.3328 26.2781V27.0744H22.9255V26.2781C22.9255 24.961 21.8536 23.8892 20.5365 23.8892C19.2194 23.8892 18.1476 24.961 18.1476 26.2781V27.0744H19.7402V26.2781Z" fill="black"/>
<path d="M34.0739 44.593H30.8082C30.6234 43.6945 30.1345 42.8871 29.424 42.3069C28.7134 41.7267 27.8245 41.4092 26.9071 41.4078H22.6214L21.4047 38.9751C21.1149 38.3977 20.6967 37.8943 20.1823 37.5035C21.681 36.8845 22.998 35.8952 24.0098 34.6282C25.0217 33.3612 25.6953 31.858 25.9675 30.2595H26.1116C27.8683 30.2595 29.2968 28.831 29.2968 27.0743C29.2968 25.3177 27.8683 23.8891 26.1116 23.8891V21.5002C26.1092 20.4186 25.7334 19.3709 25.0477 18.5345C24.362 17.698 23.4084 17.124 22.3483 16.9095L21.4899 16.7383L21.1769 18.2998L22.0353 18.471C22.6001 18.5853 23.1218 18.8548 23.5418 19.2492C23.9618 19.6437 24.2636 20.1474 24.4131 20.7039H20.5932C18.912 20.7085 17.2465 20.3796 15.6932 19.7362C14.1399 19.0928 12.7296 18.1477 11.544 16.9557L10.418 18.0816C10.8178 18.4822 11.243 18.8469 11.6794 19.1933L9.06591 20.1735C8.45978 20.4029 7.93759 20.8109 7.56845 21.3436C7.19931 21.8762 7.00063 22.5084 6.9987 23.1565V23.8891C5.24205 23.8891 3.81348 25.3177 3.81348 27.0743C3.81348 28.831 5.24205 30.2595 6.9987 30.2595H7.14283C7.46275 32.1356 8.3346 33.8737 9.64701 35.252C10.9594 36.6302 12.6529 37.586 14.511 37.9972C13.78 38.7759 13.3718 39.8031 13.3691 40.8711V49.3709H34.0731C34.9514 49.3709 35.6657 48.6566 35.6657 47.7783V46.1856C35.6657 45.7634 35.498 45.3584 35.1995 45.0598C34.901 44.7611 34.4961 44.5932 34.0739 44.593ZM5.40688 27.0743C5.40688 26.196 6.12117 25.4817 6.99949 25.4817V28.6669C6.12196 28.6669 5.40688 27.9526 5.40688 27.0743ZM29.1495 44.593H26.1108V43.0004H26.9071C27.9439 43.0004 28.8198 43.6685 29.1495 44.593ZM27.7034 27.0743C27.7034 27.9526 26.9891 28.6669 26.1108 28.6669V25.4817C26.9891 25.4817 27.7034 26.196 27.7034 27.0743ZM8.5921 28.6669V23.1557C8.5921 22.4956 9.00698 21.8959 9.62571 21.6642L13.2879 20.2906C15.498 21.6048 18.0219 22.2978 20.5932 22.2965H24.5182V28.6669C24.5182 33.0578 20.946 36.63 16.5552 36.63C12.1643 36.63 8.5921 33.0578 8.5921 28.6669ZM14.9625 47.7783V45.8058C15.5079 46.5666 16.1742 47.2329 16.935 47.7783H14.9625ZM22.1293 47.7783H21.8697C18.061 47.7783 14.9625 44.6798 14.9625 40.8711C14.9634 40.1689 15.2427 39.4958 15.7392 38.9993C16.2357 38.5027 16.9089 38.2234 17.6111 38.2226C18.6216 38.2226 19.5286 38.784 19.9801 39.687L21.239 42.2041L20.6211 43.4408L22.0457 44.1535L22.6214 43.0004H24.5182V44.593C23.6399 44.593 22.9256 45.3073 22.9256 46.1856V47.7783H22.1293ZM25.3145 47.7783H24.5182V46.1856H34.0739L34.0747 47.7783H25.3145Z" fill="black"/>
<path d="M41.2408 27.9344L42.006 23.3421C42.0595 23.0175 42.0417 22.6852 41.954 22.3682C41.8663 22.0511 41.7107 21.757 41.498 21.506C41.2853 21.2551 41.0206 21.0534 40.7222 20.9149C40.4239 20.7764 40.099 20.7044 39.77 20.7039H39.301C38.1886 20.7039 37.2481 21.5002 37.065 22.5983L34.1043 40.3623C34.0509 40.6869 34.0686 41.0192 34.1564 41.3362C34.2441 41.6533 34.3997 41.9474 34.6124 42.1984C34.825 42.4493 35.0897 42.651 35.3881 42.7895C35.6865 42.928 36.0114 43 36.3403 43.0005H36.8094C37.9218 43.0005 38.8622 42.2042 39.0454 41.1061L40.0686 34.965L41.8747 44.5931H38.8519C37.9736 44.5931 37.2593 45.3074 37.2593 46.1857V47.7783C37.2593 48.6566 37.9736 49.3709 38.8519 49.3709H45.2223C46.1006 49.3709 46.8149 48.6566 46.8149 47.7783V45.3894L44.3121 32.799C43.9159 30.8571 42.8236 29.1271 41.2408 27.9344ZM37.4751 40.8441C37.4492 41.0017 37.3681 41.1449 37.2463 41.2482C37.1244 41.3515 36.9699 41.4081 36.8102 41.4079H36.3411C36.2433 41.4077 36.1466 41.3862 36.0579 41.345C35.9691 41.3037 35.8904 41.2437 35.8272 41.169C35.7639 41.0943 35.7177 41.0068 35.6916 40.9125C35.6655 40.8181 35.6603 40.7193 35.6762 40.6227L38.6369 22.8603C38.6626 22.7027 38.7437 22.5593 38.8655 22.456C38.9874 22.3527 39.142 22.2962 39.3018 22.2965H39.7708C39.8687 22.2967 39.9653 22.3182 40.0541 22.3594C40.1428 22.4007 40.2215 22.4607 40.2848 22.5354C40.348 22.6101 40.3943 22.6976 40.4203 22.792C40.4464 22.8863 40.4517 22.9851 40.4357 23.0817L37.4751 40.8441ZM45.2223 47.7783H38.8519V46.1857H45.2223V47.7783ZM43.4943 44.5931L41.5561 34.2523C41.4062 33.4823 41.0532 32.7664 40.5337 32.1787L40.9366 29.7595C41.8611 30.6716 42.4929 31.8384 42.7514 33.1112L45.0471 44.5931H43.4943ZM22.9258 4.77783H24.5184V6.37044H22.9258V4.77783ZM26.111 4.77783H27.7036V6.37044H26.111V4.77783ZM29.2962 4.77783H30.8888V6.37044H29.2962V4.77783Z" fill="black"/>
<path d="M46.8149 0H21.3332C19.5765 0 18.1479 1.42857 18.1479 3.18522V9.55566H19.5932C19.6426 9.55566 19.6904 9.56203 19.7406 9.56283V3.18522C19.7406 2.3069 20.4548 1.59261 21.3332 1.59261H46.8149C47.6933 1.59261 48.4075 2.3069 48.4075 3.18522V12.7409C48.4075 13.6192 47.6933 14.3335 46.8149 14.3335V4.77783C46.8149 3.89951 46.1006 3.18522 45.2223 3.18522H43.6297C42.7514 3.18522 42.0371 3.89951 42.0371 4.77783V14.3335H40.4445V7.96305C40.4445 7.08473 39.7302 6.37044 38.8519 6.37044H37.2593C36.3809 6.37044 35.6667 7.08473 35.6667 7.96305V15.0653L35.0121 18.9911C34.989 19.1296 34.7525 19.1296 34.7294 18.9911L34.0748 15.0653V11.1483C34.0748 10.2699 33.3606 9.55566 32.4822 9.55566H30.8896C30.0113 9.55566 29.297 10.2699 29.297 11.1483V14.3335H27.9393C28.2379 14.8376 28.4904 15.3695 28.695 15.9261H32.6041L33.1583 19.2531C33.2977 20.094 34.0183 20.7039 34.8704 20.7039C35.7224 20.7039 36.4431 20.094 36.5824 19.2531L37.1374 15.9261H46.8149C48.5716 15.9261 50.0002 14.4975 50.0002 12.7409V3.18522C50.0002 1.42857 48.5716 0 46.8149 0ZM30.8888 11.1483H32.4814V14.3335H30.8888V11.1483ZM43.6297 4.77783H45.2223V14.3335H43.6297V4.77783ZM38.8519 7.96305V14.3335H37.2593V7.96305H38.8519Z" fill="black"/>
</svg>
