<svg width="30" height="30" viewBox="0 0 30 30" fill="none" xmlns="http://www.w3.org/2000/svg">
<g clip-path="url(#clip0_1_6439)">
<path d="M15 0C12.5136 0 10.129 0.98772 8.37087 2.74587C6.61272 4.50403 5.625 6.8886 5.625 9.375C5.625 18.75 15 30 15 30C15 30 24.375 18.75 24.375 9.375C24.375 6.8886 23.3873 4.50403 21.6291 2.74587C19.871 0.98772 17.4864 0 15 0ZM15 15C13.5082 15 12.0774 14.4074 11.0225 13.3525C9.96763 12.2976 9.375 10.8668 9.375 9.375C9.375 7.88316 9.96763 6.45242 11.0225 5.39752C12.0774 4.34263 13.5082 3.75 15 3.75C16.4918 3.75 17.9226 4.34263 18.9775 5.39752C20.0324 6.45242 20.625 7.88316 20.625 9.375C20.625 10.8668 20.0324 12.2976 18.9775 13.3525C17.9226 14.4074 16.4918 15 15 15Z" fill="#0F113C"/>
</g>
<defs>
<clipPath id="clip0_1_6439">
<rect width="30" height="30" fill="white"/>
</clipPath>
</defs>
</svg>
