<svg width="50" height="51" viewBox="0 0 50 51" fill="none" xmlns="http://www.w3.org/2000/svg">
<path d="M17.742 32.6284H12.9033V27.7754H17.742V32.6284ZM24.1936 32.6284H19.3549V27.7754H24.1936V32.6284ZM30.6453 32.6284H25.8065V27.7754H30.6453V32.6284ZM37.0969 32.6284H32.2582V27.7754H37.0969V32.6284ZM24.1936 18.8783H40.3227V22.1136H24.1936V18.8783Z" fill="#F0BC5E"/>
<path d="M45.9677 8.36354H43.5484V2.70175C43.5484 1.36395 42.4629 0.275269 41.129 0.275269H8.87097C7.5371 0.275269 6.45161 1.36395 6.45161 2.70175V8.36354H4.03226C1.80887 8.36354 0 10.1777 0 12.4077V38.2902C0 40.5201 1.80887 42.3343 4.03226 42.3343H16.9355V45.5696H16.129C13.9056 45.5696 12.0968 47.3838 12.0968 49.6138V50.4226H37.9032V49.6138C37.9032 47.3838 36.0944 45.5696 33.871 45.5696H33.0645V42.3343H45.9677C48.1911 42.3343 50 40.5201 50 38.2902V12.4077C50 10.1777 48.1911 8.36354 45.9677 8.36354ZM38.7097 34.246H11.2903V26.1578H38.7097V34.246ZM9.67742 24.5401V34.246H8.06452V8.36354H41.9355V34.246H40.3226V24.5401H9.67742ZM6.45161 34.246H4.83871V13.2165H6.45161V34.246ZM43.5484 13.2165H45.1613V34.246H43.5484V13.2165ZM8.87097 1.89292H41.129C41.5734 1.89292 41.9355 2.25609 41.9355 2.70175V6.74589H8.06452V2.70175C8.06452 2.25609 8.42661 1.89292 8.87097 1.89292ZM36.1524 48.8049H13.8476C14.015 48.3322 14.3241 47.9229 14.7326 47.6333C15.141 47.3437 15.6288 47.1879 16.129 47.1873H33.871C34.9226 47.1873 35.8194 47.8634 36.1524 48.8049ZM31.4516 45.5696H18.5484V42.3343H31.4516V45.5696ZM25.8065 39.099V40.7166H24.1952C24.1978 40.1774 24.1943 39.6382 24.1847 39.099H25.8065ZM29.0323 40.7166H27.4194V39.099H28.2258C28.6702 39.099 29.0323 39.4613 29.0323 39.9078V40.7166ZM22.5847 39.099C22.5847 39.5916 22.5839 40.22 22.5823 40.7166H20.9677V39.9078C20.9677 39.4613 21.3298 39.099 21.7742 39.099H22.5847ZM48.3871 38.2902C48.3871 39.628 47.3016 40.7166 45.9677 40.7166H30.6452V39.9078C30.6452 38.57 29.5597 37.4813 28.2258 37.4813H23.4508L23.4202 37.4797L23.4185 37.4813H21.7742C20.4403 37.4813 19.3548 38.57 19.3548 39.9078V40.7166H4.03226C2.69839 40.7166 1.6129 39.628 1.6129 38.2902V12.4077C1.6129 11.0699 2.69839 9.9812 4.03226 9.9812H6.45161V11.5989H4.83871C3.94919 11.5989 3.22581 12.3244 3.22581 13.2165V34.246C3.22581 35.1382 3.94919 35.8637 4.83871 35.8637H45.1613C46.0508 35.8637 46.7742 35.1382 46.7742 34.246V13.2165C46.7742 12.3244 46.0508 11.5989 45.1613 11.5989H43.5484V9.9812H45.9677C47.3016 9.9812 48.3871 11.0699 48.3871 12.4077V38.2902Z" fill="black"/>
<path d="M9.67725 3.51059H11.2901V5.12824H9.67725V3.51059ZM12.9031 3.51059H14.516V5.12824H12.9031V3.51059ZM16.1289 3.51059H17.7418V5.12824H16.1289V3.51059ZM9.67725 22.9225H22.5805V9.98121H9.67725V22.9225ZM11.2901 11.5989H20.9676V21.3048H11.2901V11.5989ZM40.3224 9.98121H24.1934V16.4518H40.3224V9.98121ZM38.7095 14.8342H25.8063V11.5989H38.7095V14.8342ZM24.1934 18.0695H40.3224V19.6871H24.1934V18.0695ZM24.1934 21.3048H40.3224V22.9225H24.1934V21.3048Z" fill="black"/>
</svg>
