<svg width="50" height="50" viewBox="0 0 50 50" fill="none" xmlns="http://www.w3.org/2000/svg">
<ellipse cx="26.2471" cy="25" rx="23.753" ry="25" fill="#F3AF1C" fill-opacity="0.9"/>
<g clip-path="url(#clip0_1_13566)">
<path d="M27 18V24H33" stroke="white" stroke-width="2" stroke-linecap="round" stroke-linejoin="round"/>
<path d="M34 17L27 24" stroke="white" stroke-width="2" stroke-linecap="round" stroke-linejoin="round"/>
<path d="M32.9999 32.92V35.92C33.0011 36.1985 32.944 36.4741 32.8324 36.7293C32.7209 36.9845 32.5572 37.2136 32.352 37.4018C32.1468 37.5901 31.9045 37.7335 31.6407 37.8227C31.3769 37.9119 31.0973 37.945 30.8199 37.92C27.7428 37.5856 24.7869 36.5341 22.1899 34.85C19.7738 33.3146 17.7253 31.2661 16.1899 28.85C14.4999 26.2412 13.4482 23.271 13.1199 20.18C13.0949 19.9034 13.1278 19.6247 13.2164 19.3616C13.3051 19.0985 13.4475 18.8567 13.6347 18.6516C13.8219 18.4465 14.0497 18.2827 14.3037 18.1705C14.5577 18.0583 14.8323 18.0002 15.1099 18H18.1099C18.5952 17.9952 19.0657 18.1671 19.4337 18.4835C19.8017 18.8 20.042 19.2394 20.1099 19.72C20.2366 20.68 20.4714 21.6227 20.8099 22.53C20.9445 22.8879 20.9736 23.2769 20.8938 23.6509C20.8141 24.0248 20.6288 24.3681 20.3599 24.64L19.0899 25.91C20.5135 28.4135 22.5864 30.4864 25.0899 31.91L26.3599 30.64C26.6318 30.3711 26.9751 30.1858 27.3491 30.1061C27.723 30.0263 28.112 30.0554 28.4699 30.19C29.3772 30.5285 30.3199 30.7634 31.2799 30.89C31.7657 30.9585 32.2093 31.2032 32.5265 31.5775C32.8436 31.9518 33.0121 32.4296 32.9999 32.92Z" stroke="white" stroke-width="2" stroke-linecap="round" stroke-linejoin="round"/>
</g>
<defs>
<clipPath id="clip0_1_13566">
<rect width="28" height="28" fill="white" transform="translate(11 11)"/>
</clipPath>
</defs>
</svg>
