<svg width="40" height="39" viewBox="0 0 40 39" fill="none" xmlns="http://www.w3.org/2000/svg">
<path d="M40 19.5C40 30.2696 31.0457 39 20 39C8.9543 39 0 30.2696 0 19.5C0 8.73045 8.9543 0 20 0C31.0457 0 40 8.73045 40 19.5Z" fill="white"/>
<path d="M28.8312 9.64627L6.66875 18.1925C5.15625 18.8 5.165 19.6438 6.39125 20.02L12.0812 21.795L25.2462 13.4888C25.8687 13.11 26.4375 13.3138 25.97 13.7288L15.3037 23.355H15.3012L15.3037 23.3563L14.9112 29.2213C15.4862 29.2213 15.74 28.9575 16.0625 28.6463L18.8262 25.9588L24.575 30.205C25.635 30.7888 26.3962 30.4888 26.66 29.2238L30.4337 11.4388C30.82 9.89002 29.8425 9.18877 28.8312 9.64627Z" fill="#0F113C"/>
</svg>
