<svg width="50" height="50" viewBox="0 0 50 50" fill="none" xmlns="http://www.w3.org/2000/svg">
<path d="M38.6836 15.3226C38.5659 15.3225 38.4496 15.2969 38.3429 15.2474C38.2362 15.1978 38.1416 15.1257 38.0657 15.0359C37.9898 14.9461 37.9344 14.8409 37.9035 14.7276C37.8726 14.6143 37.8668 14.4956 37.8866 14.3798L38.4177 11.2903H36.2587C34.9217 11.2903 33.8337 10.2048 33.8337 8.87097V2.41935C33.8337 1.08548 34.9217 0 36.2587 0H47.5751C48.9121 0 50.0001 1.08548 50.0001 2.41935V8.87097C50.0001 10.2048 48.9121 11.2903 47.5751 11.2903H45.3821L39.112 15.2C38.9835 15.28 38.8351 15.3225 38.6836 15.3226Z" fill="#F0BC5E"/>
<path d="M10.1162 31.8425L8.02603 33.9279L3.17628 29.0895L5.26646 27.0041L10.1162 31.8425Z" fill="#F0BC5E"/>
<path d="M20.9992 46.8726L23.3255 44.746L18.4756 39.9073L16.1348 42.0194L20.9992 46.8726Z" fill="#F0BC5E"/>
<path d="M38.7419 37.9468C38.4211 36.9868 37.8475 36.1305 37.0811 35.4675C36.3148 34.8045 35.3839 34.3592 34.3859 34.1782L28.984 33.1976V32.7799C29.924 32.2355 30.742 31.5073 31.3935 30.6452H33.0255C34.3625 30.6452 35.4505 29.5597 35.4505 28.2258V18.5484C35.4505 12.7678 30.7364 8.06454 24.9424 8.06454C19.1484 8.06454 14.4343 12.7678 14.4343 18.5484V24.1936C14.4343 25.7484 15.5425 27.0492 17.012 27.3524C17.4655 29.6702 18.9172 31.6315 20.9008 32.7799V33.1976L15.498 34.1782C14.5001 34.3592 13.5694 34.8045 12.8032 35.4675C12.037 36.1305 11.4635 36.9868 11.1428 37.9468L10.8195 38.9153L8.06635 36.1686C7.75111 35.8541 7.75111 35.342 8.06635 35.0274L11.2592 31.8428L5.26635 25.8637L1.65802 29.4637C0.589431 30.5299 0.000976562 31.9476 0.000976562 33.4557C0.000976562 34.9637 0.589431 36.3807 1.65802 37.4468L12.5824 48.346C13.651 49.4121 15.072 50 16.5836 50C18.0951 50 19.5153 49.4121 20.5589 48.3702L24.4962 44.771L23.2684 43.5484H40.6132L38.7419 37.9468ZM24.9424 35.9565L22.5174 33.5371V33.4992C23.302 33.7457 24.1198 33.8711 24.9424 33.871C25.7871 33.871 26.601 33.7395 27.3673 33.4992V33.5371L24.9424 35.9565ZM33.0255 29.0323H32.3457C32.5827 28.4934 32.7595 27.93 32.8728 27.3524C33.2187 27.2807 33.5372 27.1436 33.8339 26.971V28.2258C33.8339 28.671 33.4709 29.0323 33.0255 29.0323ZM33.0255 22.8049C33.5065 23.0847 33.8339 23.5992 33.8339 24.1936C33.8339 24.7879 33.5065 25.3024 33.0255 25.5823V22.8049ZM16.0509 24.1936C16.0509 23.5992 16.3783 23.0847 16.8592 22.8049V25.5823C16.3783 25.3024 16.0509 24.7879 16.0509 24.1936ZM16.8592 20.1613V21.0823C16.5757 21.1562 16.3038 21.2685 16.0509 21.4162V18.5484C16.0509 13.6573 20.0399 9.67744 24.9424 9.67744C29.8448 9.67744 33.8339 13.6573 33.8339 18.5484V21.4162C33.5811 21.2682 33.3091 21.1558 33.0255 21.0823V20.1613H32.2172C29.827 20.1613 27.5799 19.2323 25.8889 17.546L24.9424 16.6016L23.9958 17.546C22.3048 19.2323 20.0577 20.1613 17.6675 20.1613H16.8592ZM18.4758 25.8065V21.7436C20.9032 21.5613 23.1665 20.5621 24.9424 18.8774C26.7182 20.5621 28.9815 21.5621 31.4089 21.7436V25.8065C31.4089 26.9823 31.0872 28.0823 30.5343 29.0323H24.9424V30.6452H29.2054C28.0657 31.646 26.576 32.2581 24.9424 32.2581C21.3769 32.2581 18.4758 29.3637 18.4758 25.8065ZM8.97248 31.8428L8.09464 32.7186L4.38771 29.0202L5.26554 28.1444L8.97248 31.8428ZM16.582 48.3871C15.5029 48.3871 14.4876 47.967 13.7238 47.2057L2.79937 36.3073C2.03632 35.546 1.61599 34.5331 1.61599 33.4565C1.61599 32.3791 2.03632 31.3662 2.79937 30.6049L3.24394 30.1613L6.95088 33.8597L6.92178 33.8887C5.97686 34.8323 5.97686 36.367 6.92178 37.3105L12.7182 43.0936C13.1765 43.55 13.7852 43.8024 14.4335 43.8024C15.0817 43.8024 15.6904 43.5508 16.1188 43.1218L16.1794 43.0678L19.9033 46.7831L19.4394 47.2073C18.6763 47.967 17.6611 48.3871 16.582 48.3871ZM21.0964 45.6912L17.3806 41.9839L18.4484 41.021L22.1577 44.7218L21.0964 45.6912ZM21.6517 41.9355L18.5033 38.7944L15.0049 41.9516C14.7002 42.2573 14.1675 42.2573 13.862 41.9516L12.0966 40.1903L12.6754 38.4565C12.9045 37.7707 13.3142 37.1589 13.8615 36.6852C14.4089 36.2115 15.0737 35.8932 15.7866 35.7637L21.4367 34.7395L24.9424 38.2371L28.4472 34.7403L34.0966 35.7645C34.8095 35.8939 35.4744 36.2121 36.0218 36.6858C36.5691 37.1596 36.9787 37.7714 37.2078 38.4573L38.3709 41.9355H21.6517ZM37.0671 3.22583H46.7669V4.83873H37.0671V3.22583ZM37.0671 6.45164H43.5336V8.06454H37.0671V6.45164ZM45.1503 6.45164H46.7669V8.06454H45.1503V6.45164Z" fill="black"/>
<path d="M7.57554 20.046L6.74378 18.6629L4.55324 19.9742C6.84401 10.6734 15.2271 4.03228 24.9422 4.03228C27.0656 4.03228 29.1608 4.34679 31.1695 4.96776L31.648 3.42744C29.4841 2.75808 27.2281 2.41937 24.9422 2.41937C14.3807 2.41937 5.28315 9.70808 2.91802 19.875L1.38626 17.3274L0 18.1573L2.84123 22.8807L7.57554 20.046ZM49.608 17.8573L44.8737 15.0226L42.0324 19.746L43.4187 20.5758L44.8332 18.2234C45.5777 20.3968 45.9584 22.6702 45.9584 25C45.9584 29.796 44.2933 34.4847 41.271 38.2016L42.5263 39.2178C45.7822 35.2145 47.5751 30.1645 47.5751 25C47.5751 22.5331 47.1766 20.1242 46.3998 17.8178L48.7754 19.2395L49.608 17.8573Z" fill="black"/>
</svg>
