<svg width="27" height="21" viewBox="0 0 27 21" fill="none" xmlns="http://www.w3.org/2000/svg">
<path d="M2.85409 18.8125C1.39575 17.2084 0.520752 15.4584 0.520752 12.5417C0.520752 7.43754 4.16659 2.91671 9.27075 0.583374L10.5833 2.47921C5.77075 5.10421 4.74992 8.45837 4.45825 10.6459C5.18742 10.2084 6.20825 10.0625 7.22909 10.2084C9.85408 10.5 11.8958 12.5417 11.8958 15.3125C11.8958 16.625 11.3124 17.9375 10.4374 18.9584C9.41658 19.9792 8.24992 20.4167 6.79159 20.4167C5.18742 20.4167 3.72909 19.6875 2.85409 18.8125ZM17.4374 18.8125C15.9791 17.2084 15.1041 15.4584 15.1041 12.5417C15.1041 7.43754 18.7499 2.91671 23.8541 0.583374L25.1666 2.47921C20.3541 5.10421 19.3333 8.45837 19.0416 10.6459C19.7708 10.2084 20.7916 10.0625 21.8124 10.2084C24.4374 10.5 26.4791 12.5417 26.4791 15.3125C26.4791 16.625 25.8958 17.9375 25.0208 18.9584C24.1458 19.9792 22.8333 20.4167 21.3749 20.4167C19.7708 20.4167 18.3124 19.6875 17.4374 18.8125Z" fill="#0F113C"/>
</svg>
