<svg width="24" height="24" viewBox="0 0 24 24" fill="none" xmlns="http://www.w3.org/2000/svg">
<path d="M1.875 2.25C1.25156 2.25 0.75 2.75156 0.75 3.375V5.625C0.75 6.24844 1.25156 6.75 1.875 6.75H4.125C4.74844 6.75 5.25 6.24844 5.25 5.625V3.375C5.25 2.75156 4.74844 2.25 4.125 2.25H1.875ZM9 3C8.17031 3 7.5 3.67031 7.5 4.5C7.5 5.32969 8.17031 6 9 6H22.5C23.3297 6 24 5.32969 24 4.5C24 3.67031 23.3297 3 22.5 3H9ZM9 10.5C8.17031 10.5 7.5 11.1703 7.5 12C7.5 12.8297 8.17031 13.5 9 13.5H22.5C23.3297 13.5 24 12.8297 24 12C24 11.1703 23.3297 10.5 22.5 10.5H9ZM9 18C8.17031 18 7.5 18.6703 7.5 19.5C7.5 20.3297 8.17031 21 9 21H22.5C23.3297 21 24 20.3297 24 19.5C24 18.6703 23.3297 18 22.5 18H9ZM0.75 10.875V13.125C0.75 13.7484 1.25156 14.25 1.875 14.25H4.125C4.74844 14.25 5.25 13.7484 5.25 13.125V10.875C5.25 10.2516 4.74844 9.75 4.125 9.75H1.875C1.25156 9.75 0.75 10.2516 0.75 10.875ZM1.875 17.25C1.25156 17.25 0.75 17.7516 0.75 18.375V20.625C0.75 21.2484 1.25156 21.75 1.875 21.75H4.125C4.74844 21.75 5.25 21.2484 5.25 20.625V18.375C5.25 17.7516 4.74844 17.25 4.125 17.25H1.875Z" fill="white"/>
</svg>
