<svg width="24" height="24" viewBox="0 0 24 24" fill="none" xmlns="http://www.w3.org/2000/svg">
<g clip-path="url(#clip0_1_1710)">
<path d="M24 16.7142V20.9999C24 21.3571 23.875 21.6607 23.625 21.9107C23.375 22.1607 23.0714 22.2857 22.7143 22.2857H18.4286C18.0714 22.2857 17.7679 22.1607 17.5179 21.9107C17.2679 21.6607 17.1429 21.3571 17.1429 20.9999V16.7142C17.1429 16.3571 17.2679 16.0535 17.5179 15.8035C17.7679 15.5535 18.0714 15.4285 18.4286 15.4285H19.7143V12.8571H12.8571V15.4285H14.1429C14.5 15.4285 14.8036 15.5535 15.0536 15.8035C15.3036 16.0535 15.4286 16.3571 15.4286 16.7142V20.9999C15.4286 21.3571 15.3036 21.6607 15.0536 21.9107C14.8036 22.1607 14.5 22.2857 14.1429 22.2857H9.85714C9.5 22.2857 9.19643 22.1607 8.94643 21.9107C8.69643 21.6607 8.57143 21.3571 8.57143 20.9999V16.7142C8.57143 16.3571 8.69643 16.0535 8.94643 15.8035C9.19643 15.5535 9.5 15.4285 9.85714 15.4285H11.1429V12.8571H4.28571V15.4285H5.57143C5.92857 15.4285 6.23214 15.5535 6.48214 15.8035C6.73214 16.0535 6.85714 16.3571 6.85714 16.7142V20.9999C6.85714 21.3571 6.73214 21.6607 6.48214 21.9107C6.23214 22.1607 5.92857 22.2857 5.57143 22.2857H1.28571C0.928571 22.2857 0.625 22.1607 0.375 21.9107C0.125 21.6607 0 21.3571 0 20.9999V16.7142C0 16.3571 0.125 16.0535 0.375 15.8035C0.625 15.5535 0.928571 15.4285 1.28571 15.4285H2.57143V12.8571C2.57143 12.3928 2.74107 11.991 3.08036 11.6517C3.41964 11.3124 3.82143 11.1428 4.28571 11.1428H11.1429V8.57138H9.85714C9.5 8.57138 9.19643 8.44638 8.94643 8.19638C8.69643 7.94638 8.57143 7.64281 8.57143 7.28566V2.99995C8.57143 2.6428 8.69643 2.33923 8.94643 2.08923C9.19643 1.83923 9.5 1.71423 9.85714 1.71423H14.1429C14.5 1.71423 14.8036 1.83923 15.0536 2.08923C15.3036 2.33923 15.4286 2.6428 15.4286 2.99995V7.28566C15.4286 7.64281 15.3036 7.94638 15.0536 8.19638C14.8036 8.44638 14.5 8.57138 14.1429 8.57138H12.8571V11.1428H19.7143C20.1786 11.1428 20.5804 11.3124 20.9196 11.6517C21.2589 11.991 21.4286 12.3928 21.4286 12.8571V15.4285H22.7143C23.0714 15.4285 23.375 15.5535 23.625 15.8035C23.875 16.0535 24 16.3571 24 16.7142Z" fill="white"/>
</g>
<defs>
<clipPath id="clip0_1_1710">
<rect width="24" height="24" fill="white"/>
</clipPath>
</defs>
</svg>
