<svg width="24" height="24" viewBox="0 0 24 24" fill="none" xmlns="http://www.w3.org/2000/svg">
<mask id="mask0_1_1712" style="mask-type:luminance" maskUnits="userSpaceOnUse" x="1" y="1" width="20" height="22">
<path d="M4 7.5V3C4 2.73478 4.10536 2.48043 4.29289 2.29289C4.48043 2.10536 4.73478 2 5 2H19C19.2652 2 19.5196 2.10536 19.7071 2.29289C19.8946 2.48043 20 2.73478 20 3V21C20 21.2652 19.8946 21.5196 19.7071 21.7071C19.5196 21.8946 19.2652 22 19 22H5C4.73478 22 4.48043 21.8946 4.29289 21.7071C4.10536 21.5196 4 21.2652 4 21V16.5" stroke="white" stroke-width="2" stroke-linecap="round" stroke-linejoin="round"/>
<path d="M15.5 7.5H17M14 11.5H17M14 15.5H17" stroke="white" stroke-width="2" stroke-linecap="round"/>
<path d="M2 7.5H11V16.5H2V7.5Z" fill="white" stroke="white" stroke-width="2" stroke-linecap="round" stroke-linejoin="round"/>
<path d="M5 10.5L8 13.5M8 10.5L5 13.5" stroke="black" stroke-width="2" stroke-linecap="round" stroke-linejoin="round"/>
</mask>
<g mask="url(#mask0_1_1712)">
<path d="M0 0H24V24H0V0Z" fill="white"/>
</g>
</svg>
