<svg width="50" height="50" viewBox="0 0 50 50" fill="none" xmlns="http://www.w3.org/2000/svg">
<g clip-path="url(#clip0_1_13585)">
<path d="M35.0338 21.2076C34.9341 18.1641 33.6766 15.2735 31.5181 13.1256C29.2418 10.8489 26.2164 9.59546 22.9999 9.59546C16.5035 9.59546 11.1953 14.7663 10.9665 21.2076C10.4656 21.4295 10.0398 21.7919 9.74064 22.2509C9.44153 22.7099 9.28195 23.2458 9.28125 23.7936V26.9708C9.28206 27.721 9.58045 28.4403 10.111 28.9708C10.6415 29.5013 11.3608 29.7997 12.111 29.8005C12.5964 29.7999 13.0618 29.6069 13.405 29.2636C13.7483 28.9204 13.9414 28.455 13.9419 27.9696V22.7944C13.9419 21.8463 13.2148 21.0733 12.2904 20.9814C12.6316 15.3696 17.3033 10.908 22.9999 10.908C25.8664 10.908 28.5619 12.0253 30.5906 14.054C32.4534 15.9169 33.5437 18.345 33.7077 20.9818C32.7842 21.0746 32.0584 21.8472 32.0584 22.7944V27.9691C32.0584 28.9251 32.7969 29.703 33.7322 29.7839V31.0916C33.7314 31.7997 33.4498 32.4785 32.949 32.9792C32.4483 33.4798 31.7694 33.7614 31.0613 33.7621H29.0834C28.95 33.3733 28.6983 33.0361 28.3635 32.7977C28.0286 32.5593 27.6276 32.4317 27.2166 32.433H25.1778C24.8851 32.433 24.6042 32.4951 24.347 32.615C24.0025 32.7741 23.7108 33.0284 23.5061 33.348C23.3015 33.6675 23.1925 34.0389 23.192 34.4183C23.192 34.9495 23.3989 35.4482 23.7739 35.8214C23.9576 36.0067 24.1764 36.1536 24.4174 36.2536C24.6584 36.3536 24.9169 36.4048 25.1778 36.4041H27.2166C28.0618 36.4041 28.8069 35.8577 29.0847 35.0746H31.0613C33.258 35.0746 35.0447 33.2878 35.0447 31.0916V29.5503C35.5427 29.3271 35.9656 28.9649 36.2625 28.5071C36.5595 28.0494 36.7179 27.5155 36.7186 26.9699V23.7928C36.7186 22.6404 36.0247 21.6481 35.0338 21.2076ZM12.629 22.7944V27.9691C12.629 28.2548 12.3967 28.4876 12.1106 28.4876C11.7083 28.4871 11.3227 28.3271 11.0382 28.0427C10.7538 27.7582 10.5938 27.3726 10.5933 26.9703V23.7932C10.5938 23.391 10.7538 23.0053 11.0382 22.7209C11.3227 22.4364 11.7083 22.2764 12.1106 22.276C12.3967 22.276 12.629 22.5087 12.629 22.7944ZM27.875 34.5592C27.8424 34.7099 27.7593 34.8449 27.6395 34.9419C27.5196 35.0389 27.3703 35.092 27.2161 35.0925H25.1774C24.998 35.0925 24.8296 35.0225 24.7009 34.8939C24.6383 34.8317 24.5887 34.7578 24.5549 34.6763C24.5211 34.5948 24.5038 34.5074 24.5041 34.4192C24.5045 34.2408 24.5756 34.0699 24.7018 33.9438C24.828 33.8177 24.999 33.7467 25.1774 33.7463H27.2161C27.3955 33.7463 27.5639 33.8159 27.6921 33.9445C27.819 34.071 27.889 34.2398 27.889 34.4192C27.8894 34.4673 27.8842 34.5155 27.875 34.5592ZM35.4061 26.9703C35.4057 27.3726 35.2457 27.7582 34.9612 28.0427C34.6768 28.3271 34.2911 28.4871 33.8889 28.4876C33.7514 28.4875 33.6196 28.4328 33.5224 28.3356C33.4252 28.2384 33.3706 28.1066 33.3704 27.9691V22.7944C33.3704 22.5087 33.6027 22.276 33.8889 22.276C34.2911 22.2764 34.6768 22.4364 34.9612 22.7209C35.2457 23.0053 35.4057 23.391 35.4061 23.7932V26.9703Z" fill="white"/>
</g>
<defs>
<clipPath id="clip0_1_13585">
<rect width="28" height="28" fill="white" transform="translate(9 9)"/>
</clipPath>
</defs>
</svg>
