<svg width="74" height="33" viewBox="0 0 74 33" fill="none" xmlns="http://www.w3.org/2000/svg">
<path d="M5 10L6.77215 13.2278L10 15L6.77215 16.7721L5 20L3.22785 16.7721L0 15L3.22785 13.2278L5 10Z" fill="#F3AF1C"/>
<path d="M69.0001 10L70.7722 13.2278L74 15L70.7722 16.7721L69.0001 20L67.2279 16.7721L64 15L67.2279 13.2278L69.0001 10Z" fill="#F3AF1C"/>
<path d="M37.06 6.46489C36.1001 7.31856 35.3003 8.03325 34.6005 8.8869C33.7405 9.93909 33.0206 11.0707 32.4607 12.3015C32.2607 12.7581 32.0208 12.8971 31.5409 12.8971C29.2011 12.8772 26.8616 12.8971 24.5219 12.8772C23.982 12.8772 23.8221 13.0162 23.8221 13.572C23.842 16.2918 23.8221 18.9918 23.842 21.7116C23.862 24.6298 25.7217 26.4563 28.6213 26.496C31.5609 26.5357 33.4606 24.7491 33.5605 21.791C33.6405 19.627 33.5405 17.4631 34.1405 15.339C35.6602 10.0185 40.8194 6.0083 46.3386 5.84947C46.8385 5.82962 47.0184 5.94873 46.9985 6.48476C46.9585 8.11265 46.9785 9.74056 46.9985 11.3685C46.9985 11.6861 46.9985 11.9045 46.5586 11.9045C43.5591 11.8846 40.6194 14.386 40.0396 18.1381C39.8996 19.0911 39.8996 20.044 40.0595 20.9968C40.7595 25.2453 39.0798 28.521 35.7002 30.9033C30.9809 34.2187 23.762 33.5039 19.9427 29.4541C17.8829 27.2703 17.043 24.5901 17.0231 21.652C16.9831 16.7485 17.003 11.8449 17.0231 6.9215C17.043 3.22894 19.6227 0.409906 23.2021 0.0128513C23.7421 -0.0467061 23.8621 0.0922615 23.8621 0.608421C23.842 2.31574 23.882 4.02305 23.842 5.73035C23.8221 6.32593 23.982 6.52446 24.6019 6.50461C28.5213 6.48476 32.4607 6.48476 36.4002 6.48476H37.06V6.46489Z" fill="white"/>
<path d="M51.9106 20.9799C49.4934 20.9799 47.0764 20.9598 44.6592 21C44.1178 21 43.9825 20.8393 44.0017 20.2966C44.0404 18.91 44.0404 17.5235 44.0017 16.1369C43.9825 15.5541 44.1372 15.3934 44.6979 15.3934C47.3858 15.4335 50.0735 15.3934 52.7808 15.4135C53.3222 15.4135 53.4382 15.313 53.2062 14.7705C52.6454 13.4643 51.8332 12.3791 50.6149 11.6959C50.1316 11.4346 50.0155 11.1131 50.0155 10.5906C50.0348 8.94284 50.0542 7.29503 50.0155 5.64721C49.9961 5.02426 50.1316 4.90369 50.7309 5.06446C55.4879 6.33046 59.0265 10.4701 59.7807 15.715C59.9933 17.2422 60.0514 18.7895 59.9546 20.3167C59.916 20.8794 59.7226 20.9799 59.2393 20.9799C56.7834 20.9598 54.347 20.9799 51.9106 20.9799Z" fill="#F3AF1C"/>
<path d="M42.7964 24.1946C44.8182 25.5307 47.0257 25.8157 49.3775 25.2457C50.6566 24.9249 51.7087 24.3371 52.5134 23.4108C52.761 23.1258 53.0291 23.0011 53.4417 23.0011C55.4223 23.0189 57.4028 23.0367 59.404 23.0011C60.0642 22.9833 60.0848 23.1792 59.8992 23.6423C58.1662 27.704 54.7621 30.0376 49.8932 30.7858C46.5925 31.3024 43.4359 30.8927 40.4858 29.4676C39.9907 29.2359 39.8049 29.0934 40.2588 28.6303C41.4554 27.3299 42.2393 25.8335 42.7964 24.1946Z" fill="#F3AF1C"/>
</svg>
