<svg width="26" height="30" viewBox="0 0 26 30" fill="none" xmlns="http://www.w3.org/2000/svg">
<path d="M9.11572 14.8328C8.16714 13.4599 7.60286 11.8035 7.48643 11.6628C8.87572 10.6942 11.5929 9.47709 11.745 7.73066C11.9386 5.47423 8.11572 0.757091 7.38286 0.714233C5.37714 0.735662 1.70643 4.12995 1.27143 5.15566C0.462859 7.27638 0.863573 9.24995 2.25357 12.1071C4.02357 16.3571 10.5979 24.4192 14.3586 26.9499C16.8471 28.8599 18.665 29.6099 20.8357 29.1571C21.845 28.9657 25.49 25.9749 25.855 23.9528C25.9443 23.2028 21.7071 18.2307 19.5157 18.0335C17.8143 17.8764 16.1829 20.4235 15.0136 21.6685C14.8971 21.5199 13.9 20.7421 12.83 19.5107C11.4371 18.0471 10.1429 16.3278 9.11572 14.8328Z" fill="#0F113C"/>
</svg>
