<svg width="50" height="50" viewBox="0 0 50 50" fill="none" xmlns="http://www.w3.org/2000/svg">
<circle cx="25" cy="25" r="25" fill="#F3AF1C" fill-opacity="0.9"/>
<g clip-path="url(#clip0_1_13555)">
<path d="M26.3067 39H23.6933C23.2661 38.9996 22.8537 38.8427 22.5343 38.5589C22.2149 38.2752 22.0104 37.8842 21.9597 37.46L21.6808 35.2713C21.1299 35.0925 20.5939 34.8705 20.0778 34.6075L18.3348 35.962C17.9983 36.2265 17.5761 36.3578 17.1488 36.3307C16.7216 36.3036 16.3194 36.12 16.019 35.815L14.1815 33.9775C13.8782 33.6774 13.696 33.2761 13.6698 32.8502C13.6435 32.4244 13.775 32.0037 14.0392 31.6687L15.3937 29.9245C15.1296 29.4089 14.9076 28.8728 14.7298 28.3215L12.5365 28.0427C12.1128 27.9903 11.7228 27.785 11.4399 27.4653C11.1569 27.1456 11.0005 26.7336 11 26.3067V23.6933C11 22.8102 11.6615 22.0647 12.54 21.9597L14.7287 21.6808C14.9075 21.1299 15.1295 20.5939 15.3925 20.0778L14.0392 18.3348C13.7739 17.9983 13.6424 17.5756 13.6697 17.148C13.6971 16.7203 13.8814 16.3179 14.1873 16.0178L16.0248 14.1803C16.3251 13.8772 16.7263 13.6952 17.1521 13.669C17.5779 13.6427 17.9985 13.7741 18.3337 14.038L20.0767 15.3937C20.593 15.1304 21.1294 14.9084 21.6808 14.7298L21.9597 12.5365C22.0647 11.6615 22.8102 11 23.6933 11H26.3067C27.1898 11 27.9353 11.6615 28.0403 12.54L28.3192 14.7287C28.8768 14.9095 29.4135 15.1323 29.9233 15.3925L31.6663 14.038C32.0028 13.7731 32.4252 13.6417 32.8526 13.6691C33.28 13.6964 33.6822 13.8806 33.9822 14.1862L35.8197 16.0237C36.4462 16.6315 36.5092 17.6267 35.962 18.3325L34.6075 20.0767C34.8688 20.5865 35.0917 21.1232 35.2713 21.6797L37.4647 21.9585C37.8881 22.0108 38.2778 22.216 38.5605 22.5355C38.8432 22.855 38.9995 23.2667 39 23.6933V26.3067C39 27.1898 38.3385 27.9353 37.46 28.0403L35.2713 28.3192C35.0925 28.8701 34.8705 29.4061 34.6075 29.9222L35.962 31.6652C36.2269 32.0016 36.3583 32.4241 36.3309 32.8514C36.3036 33.2788 36.1194 33.681 35.8138 33.981L33.9763 35.8185C33.6764 36.122 33.275 36.3044 32.8491 36.3306C32.4232 36.3569 32.0025 36.2252 31.6675 35.9608L29.9233 34.6063C29.4077 34.8704 28.8716 35.0924 28.3203 35.2702L28.0415 37.4635C27.9894 37.8871 27.7844 38.2771 27.4649 38.5601C27.1454 38.843 26.7335 38.9995 26.3067 39ZM20.0183 33.33C20.1152 33.33 20.2143 33.3545 20.303 33.4035C20.9578 33.768 21.6522 34.0561 22.3727 34.2622C22.4822 34.2936 22.5801 34.3564 22.6543 34.4429C22.7286 34.5293 22.7758 34.6356 22.7903 34.7487L23.117 37.3153C23.152 37.6082 23.4052 37.8333 23.6933 37.8333H26.3067C26.4481 37.8314 26.5841 37.7786 26.6898 37.6845C26.7954 37.5904 26.8636 37.4614 26.8818 37.3212L27.2097 34.7498C27.2242 34.6368 27.2714 34.5305 27.3457 34.444C27.4199 34.3576 27.5178 34.2948 27.6273 34.2633C28.3478 34.0572 29.0422 33.7691 29.697 33.4047C29.7969 33.3489 29.9111 33.3237 30.0252 33.3324C30.1393 33.3412 30.2484 33.3833 30.3387 33.4537L32.3803 35.0403C32.4903 35.1288 32.629 35.1737 32.77 35.1664C32.911 35.1591 33.0443 35.1001 33.1445 35.0007L34.9937 33.1515C35.0948 33.0513 35.1554 32.9173 35.1638 32.7752C35.1722 32.6331 35.1278 32.4929 35.0392 32.3815L33.4525 30.3398C33.3823 30.2495 33.3402 30.1405 33.3315 30.0264C33.3228 29.9123 33.3478 29.7981 33.4035 29.6982C33.768 29.0434 34.0561 28.349 34.2622 27.6285C34.2936 27.519 34.3564 27.4211 34.4429 27.3468C34.5293 27.2726 34.6356 27.2253 34.7487 27.2108L37.3153 26.8842C37.4568 26.8665 37.5871 26.7983 37.6822 26.6922C37.7774 26.5861 37.8311 26.4492 37.8333 26.3067V23.6933C37.8314 23.5519 37.7786 23.4159 37.6845 23.3102C37.5904 23.2046 37.4614 23.1364 37.3212 23.1182L34.7498 22.7903C34.6368 22.7758 34.5305 22.7286 34.444 22.6543C34.3576 22.5801 34.2948 22.4822 34.2633 22.3727C34.0572 21.6522 33.7691 20.9578 33.4047 20.303C33.3486 20.2032 33.3233 20.0889 33.332 19.9747C33.3407 19.8605 33.383 19.7515 33.4537 19.6613L35.0403 17.6197C35.1292 17.5101 35.1744 17.3716 35.1673 17.2308C35.1601 17.0899 35.1012 16.9567 35.0018 16.8567L33.1527 15.0075C33.0529 14.9056 32.9188 14.8445 32.7764 14.8361C32.6341 14.8277 32.4937 14.8726 32.3827 14.962L30.341 16.5487C30.2505 16.6191 30.1413 16.6613 30.027 16.67C29.9126 16.6788 29.7983 16.6536 29.6982 16.5977C29.0436 16.2329 28.3491 15.9448 27.6285 15.739C27.519 15.7076 27.4211 15.6447 27.3468 15.5583C27.2726 15.4718 27.2253 15.3655 27.2108 15.2525L26.8842 12.6858C26.8667 12.5442 26.7987 12.4136 26.6925 12.3182C26.5864 12.2228 26.4494 12.169 26.3067 12.1667H23.6933C23.5519 12.1686 23.4159 12.2214 23.3102 12.3155C23.2046 12.4096 23.1364 12.5386 23.1182 12.6788L22.7903 15.2502C22.7758 15.3633 22.7285 15.4697 22.6543 15.5563C22.5801 15.643 22.4822 15.706 22.3727 15.7378C21.6521 15.9432 20.9576 16.2309 20.303 16.5953C20.203 16.6514 20.0887 16.6768 19.9744 16.6683C19.86 16.6598 19.7508 16.6178 19.6602 16.5475L17.6185 14.9608C17.509 14.872 17.3705 14.8268 17.2296 14.8339C17.0888 14.841 16.9555 14.8999 16.8555 14.9993L15.0063 16.8497C14.9052 16.9498 14.8446 17.0838 14.8362 17.226C14.8278 17.3681 14.8722 17.5083 14.9608 17.6197L16.5475 19.6613C16.6177 19.7517 16.6598 19.8607 16.6685 19.9748C16.6772 20.0889 16.6522 20.203 16.5965 20.303C16.2315 20.9575 15.9434 21.652 15.7378 22.3727C15.7064 22.4822 15.6436 22.5801 15.5571 22.6543C15.4707 22.7286 15.3644 22.7758 15.2513 22.7903L12.6847 23.117C12.5432 23.1342 12.4128 23.2021 12.3176 23.308C12.2223 23.414 12.1687 23.5509 12.1667 23.6933V26.3067C12.1667 26.5948 12.3918 26.848 12.6788 26.8818L15.2502 27.2097C15.3632 27.2242 15.4695 27.2714 15.5559 27.3457C15.6424 27.4199 15.7052 27.5178 15.7367 27.6273C15.9467 28.3577 16.236 29.0542 16.5953 29.697C16.6514 29.7968 16.6767 29.9111 16.668 30.0253C16.6593 30.1395 16.617 30.2485 16.5463 30.3387L14.9597 32.3803C14.8708 32.4899 14.8256 32.6284 14.8327 32.7692C14.8399 32.9101 14.8988 33.0433 14.9982 33.1433L16.8473 34.9925C16.9474 35.0939 17.0814 35.1546 17.2236 35.1631C17.3658 35.1715 17.5061 35.1269 17.6173 35.038L19.659 33.4513C19.7625 33.3732 19.8886 33.3306 20.0183 33.33Z" fill="white"/>
<path d="M25.0001 30.8333C21.7836 30.8333 19.1667 28.2165 19.1667 25C19.1667 21.7835 21.7836 19.1666 25.0001 19.1666C28.2166 19.1666 30.8334 21.7835 30.8334 25C30.8334 28.2165 28.2166 30.8333 25.0001 30.8333ZM25.0001 20.3333C22.4264 20.3333 20.3334 22.4263 20.3334 25C20.3334 27.5736 22.4264 29.6666 25.0001 29.6666C27.5737 29.6666 29.6667 27.5736 29.6667 25C29.6667 22.4263 27.5737 20.3333 25.0001 20.3333Z" fill="white"/>
</g>
<defs>
<clipPath id="clip0_1_13555">
<rect width="28" height="28" fill="white" transform="translate(11 11)"/>
</clipPath>
</defs>
</svg>
