<svg width="40" height="39" viewBox="0 0 40 39" fill="none" xmlns="http://www.w3.org/2000/svg">
<ellipse cx="20" cy="19.5" rx="20" ry="19.5" fill="white"/>
<path d="M30.1999 13.5501C26.5999 8.00006 19.2499 6.35006 13.5499 9.80006C7.99991 13.2501 6.19991 20.7501 9.79991 26.3001L10.0999 26.7501L8.89991 31.2501L13.3999 30.0501L13.8499 30.3501C15.7999 31.4001 17.8999 32.0001 19.9999 32.0001C22.2499 32.0001 24.4999 31.4001 26.4499 30.2001C31.9999 26.6001 33.6499 19.2501 30.1999 13.5501ZM27.0499 25.1001C26.4499 26.0001 25.6999 26.6001 24.6499 26.7501C24.0499 26.7501 23.2999 27.0501 20.2999 25.8501C17.7499 24.6501 15.6499 22.7001 14.1499 20.4501C13.2499 19.4001 12.7999 18.0501 12.6499 16.7001C12.6499 15.5001 13.0999 14.4501 13.8499 13.7001C14.1499 13.4001 14.4499 13.2501 14.7499 13.2501H15.4999C15.7999 13.2501 16.0999 13.2501 16.2499 13.8501C16.5499 14.6001 17.2999 16.4001 17.2999 16.5501C17.4499 16.7001 17.4499 17.0001 17.2999 17.1501C17.4499 17.4501 17.2999 17.7501 17.1499 17.9001C16.9999 18.0501 16.8499 18.3501 16.6999 18.5001C16.3999 18.6501 16.2499 18.9501 16.3999 19.2501C16.9999 20.1501 17.7499 21.0501 18.4999 21.8001C19.3999 22.5501 20.2999 23.1501 21.3499 23.6001C21.6499 23.7501 21.9499 23.7501 22.0999 23.4501C22.2499 23.1501 22.9999 22.4001 23.2999 22.1001C23.5999 21.8001 23.7499 21.8001 24.0499 21.9501L26.4499 23.1501C26.7499 23.3001 27.0499 23.4501 27.1999 23.6001C27.3499 24.0501 27.3499 24.6501 27.0499 25.1001Z" fill="#0F113C"/>
</svg>
